<?xml version="1.0" encoding="UTF-8"?><svg id="a" xmlns="http://www.w3.org/2000/svg" viewBox="0 0 512.75 278.72"><path d="M457.11,211.17c-39.82,23.66-99.45,37.13-165.99,37.13-119.88,0-217.06-48.78-217.06-108.95S171.24,30.41,291.12,30.41c66.78,0,126.66,13.72,166.48,37.53C414.13,28.05,336.2.01,247.11,0,110.65-.02.01,62.36,0,139.32c-.01,76.96,110.6,139.38,247.06,139.4,88.75.01,166.47-27.93,210.04-67.55Z" style="fill:#05a6f0;"/><path d="M112.16,180.65l16.37-12.84c5.91,8.34,14.81,13.79,24.21,13.79s15.67-4.77,15.67-12.59c0-5.75-4.98-8.71-12.69-13.44l-10.28-6.34c-9.83-6.16-16.25-13.97-16.25-27.16,0-18.66,16.88-33.73,38.25-33.73,12.79,0,24.65,6.4,32.93,16.46l-14.39,13.45c-5.53-5.83-11.65-10.18-19.54-10.18-8.96,0-13.83,5.49-13.83,11.69,0,5.59,5.08,8.3,13.58,13.59l10.77,6.55c10.48,6.28,15.15,13.26,15.15,25.82,0,19.76-16.17,35.32-41.13,35.32-14.17,0-28.18-5.85-38.82-20.41Z" style="fill:#f35325;"/><path d="M208.86,151.31c0-45.53,30.55-81.36,72.05-81.36,16.94,0,29.29,7.89,36.68,20.91l-18.82,14.54c-4.92-7.62-10.74-11.57-19.26-11.57-24.41,0-42.3,26.26-42.3,55.6,0,20.26,7.98,33.41,28.48,33.41,5.44,0,10.8-1.85,14.44-4.58l5.56-25.86h-21.59l4.21-22.55h45.94l-12.23,62.88c-9.95,7.74-24.59,13.66-41.05,13.66-32.5,0-52.1-20.48-52.1-55.09Z" style="fill:#81bc06;"/><path d="M352.91,72.38h27.68l-21.78,108.38h49.93l-4.54,23.22h-77.61l26.32-131.6Z" style="fill:#81bc06;"/><path d="M448.29,95.27h64.46l-3.75,19.18h-41.87l-5.22,26.7h35.51l-3.75,19.18h-35.45l-8.81,43.65h-22.87l21.74-108.71Z" style="fill:#ffba08;"/></svg>